<svg data-v-423bf9ae="" xmlns="http://www.w3.org/2000/svg" viewBox="0 0 180.1849040844594 60" class="font"><!----><!----><!----><g data-v-423bf9ae="" id="cdb6180a-0bcb-4184-82a0-2e053637fe60" fill="white" transform="matrix(4.622496310940746,0,0,4.622496310940746,-2.033897941534846,-14.976887853112999)"><path d="M3.89 13.34C5.35 13.34 7.07 12.59 7.07 10.65C7.07 9.17 5.92 8.31 4.51 7.82C3.11 7.31 2.58 6.91 2.58 6.14C2.58 5.40 3.24 4.87 4.07 4.87C4.80 4.87 5.32 5.13 5.95 5.70L6.91 4.71C6.24 4.08 5.40 3.59 4.07 3.59C2.48 3.59 1.05 4.64 1.05 6.15C1.05 7.86 2.22 8.46 3.76 9.01C4.71 9.35 5.50 9.79 5.50 10.70C5.50 11.61 4.62 12.06 3.81 12.06C2.90 12.06 2.16 11.72 1.49 10.89L0.44 11.90C1.27 12.83 2.35 13.34 3.89 13.34ZM14.93 13.15L11.38 9.54L14.52 6.53L12.67 6.53L10.09 9.04L10.09 3.24L8.68 3.24L8.68 13.15L10.09 13.15L10.09 10.06L13.05 13.15ZM22.01 9.70C22.01 7.73 20.68 6.36 18.75 6.36C16.77 6.36 15.34 7.89 15.34 9.84C15.34 11.80 16.76 13.31 18.93 13.31C20.07 13.31 21.03 12.92 21.63 12.25L20.65 11.46C20.23 11.94 19.66 12.19 18.91 12.19C17.68 12.19 16.93 11.33 16.83 10.15L22.01 10.15ZM18.75 7.50C19.79 7.50 20.46 8.12 20.61 9.17L16.89 9.17C17.09 8.17 17.78 7.50 18.75 7.50ZM26.50 6.36C25.71 6.36 25.19 6.74 24.81 7.41L24.63 6.53L23.41 6.53L23.41 13.15L24.82 13.15L24.82 9.70C24.82 8.62 25.39 7.66 26.43 7.66C26.66 7.66 26.88 7.70 27.07 7.79L27.49 6.58C27.31 6.47 26.94 6.36 26.50 6.36ZM31.47 6.36C30.68 6.36 30.16 6.74 29.78 7.41L29.60 6.53L28.38 6.53L28.38 13.15L29.79 13.15L29.79 9.70C29.79 8.62 30.36 7.66 31.40 7.66C31.63 7.66 31.85 7.70 32.04 7.79L32.46 6.58C32.29 6.47 31.91 6.36 31.47 6.36ZM37.90 6.53L35.95 11.35L33.99 6.53L32.49 6.53L35.25 12.99L33.82 16.22L35.28 16.22L39.42 6.53Z"></path></g><!----><!----></svg>